<?xml version="1.0" standalone="no"?>
<svg xmlns:xlink="http://www.w3.org/1999/xlink" id="wave" style="transform:rotate(0deg); transition: 0.3s" viewBox="0 0 1440 350" version="1.1" xmlns="http://www.w3.org/2000/svg"><defs><linearGradient id="sw-gradient-0" x1="0" x2="0" y1="1" y2="0"><stop stop-color="rgba(243, 106, 62, 1)" offset="0%"/><stop stop-color="rgba(255, 179, 11, 1)" offset="100%"/></linearGradient></defs><path style="transform:translate(0, 0px); opacity:1" fill="url(#sw-gradient-0)" d="M0,105L80,116.7C160,128,320,152,480,157.5C640,163,800,152,960,157.5C1120,163,1280,187,1440,180.8C1600,175,1760,140,1920,128.3C2080,117,2240,128,2400,134.2C2560,140,2720,140,2880,169.2C3040,198,3200,257,3360,245C3520,233,3680,152,3840,151.7C4000,152,4160,233,4320,221.7C4480,210,4640,105,4800,70C4960,35,5120,70,5280,116.7C5440,163,5600,222,5760,233.3C5920,245,6080,210,6240,163.3C6400,117,6560,58,6720,35C6880,12,7040,23,7200,75.8C7360,128,7520,222,7680,256.7C7840,292,8000,268,8160,250.8C8320,233,8480,222,8640,180.8C8800,140,8960,70,9120,81.7C9280,93,9440,187,9600,233.3C9760,280,9920,280,10080,256.7C10240,233,10400,187,10560,151.7C10720,117,10880,93,11040,122.5C11200,152,11360,233,11440,274.2L11520,315L11520,350L11440,350C11360,350,11200,350,11040,350C10880,350,10720,350,10560,350C10400,350,10240,350,10080,350C9920,350,9760,350,9600,350C9440,350,9280,350,9120,350C8960,350,8800,350,8640,350C8480,350,8320,350,8160,350C8000,350,7840,350,7680,350C7520,350,7360,350,7200,350C7040,350,6880,350,6720,350C6560,350,6400,350,6240,350C6080,350,5920,350,5760,350C5600,350,5440,350,5280,350C5120,350,4960,350,4800,350C4640,350,4480,350,4320,350C4160,350,4000,350,3840,350C3680,350,3520,350,3360,350C3200,350,3040,350,2880,350C2720,350,2560,350,2400,350C2240,350,2080,350,1920,350C1760,350,1600,350,1440,350C1280,350,1120,350,960,350C800,350,640,350,480,350C320,350,160,350,80,350L0,350Z"/></svg>