<?xml version="1.0" standalone="no"?>
<svg xmlns:xlink="http://www.w3.org/1999/xlink" id="wave" style="transform:rotate(180deg); transition: 0.3s" viewBox="0 0 1440 100" version="1.1" xmlns="http://www.w3.org/2000/svg"><defs><linearGradient id="sw-gradient-0" x1="0" x2="0" y1="1" y2="0"><stop stop-color="#f2f3f3" offset="0%"/><stop stop-color="#f2f3f3" offset="100%"/></linearGradient></defs><path style="transform:translate(0, 0px); opacity:1" fill="url(#sw-gradient-0)" d="M0,50L10,41.7C20,33,40,17,60,8.3C80,0,100,0,120,13.3C140,27,160,53,180,61.7C200,70,220,60,240,48.3C260,37,280,23,300,23.3C320,23,340,37,360,43.3C380,50,400,50,420,43.3C440,37,460,23,480,26.7C500,30,520,50,540,60C560,70,580,70,600,66.7C620,63,640,57,660,50C680,43,700,37,720,35C740,33,760,37,780,35C800,33,820,27,840,33.3C860,40,880,60,900,60C920,60,940,40,960,41.7C980,43,1000,67,1020,68.3C1040,70,1060,50,1080,46.7C1100,43,1120,57,1140,58.3C1160,60,1180,50,1200,46.7C1220,43,1240,47,1260,46.7C1280,47,1300,43,1320,35C1340,27,1360,13,1380,11.7C1400,10,1420,20,1430,25L1440,30L1440,100L1430,100C1420,100,1400,100,1380,100C1360,100,1340,100,1320,100C1300,100,1280,100,1260,100C1240,100,1220,100,1200,100C1180,100,1160,100,1140,100C1120,100,1100,100,1080,100C1060,100,1040,100,1020,100C1000,100,980,100,960,100C940,100,920,100,900,100C880,100,860,100,840,100C820,100,800,100,780,100C760,100,740,100,720,100C700,100,680,100,660,100C640,100,620,100,600,100C580,100,560,100,540,100C520,100,500,100,480,100C460,100,440,100,420,100C400,100,380,100,360,100C340,100,320,100,300,100C280,100,260,100,240,100C220,100,200,100,180,100C160,100,140,100,120,100C100,100,80,100,60,100C40,100,20,100,10,100L0,100Z"/></svg>